<svg width="176" height="158" viewBox="0 0 176 158" fill="none" xmlns="http://www.w3.org/2000/svg">
<path d="M24.4286 98.1429C21.0922 111.419 20.219 119.479 26.9684 131.73C34.3465 145.122 44.8216 151.361 59.8889 153.762C79.3475 156.862 102.61 156.923 119.921 146.079C130.451 139.483 133.061 129.75 138.714 119.857M4.42858 18.7144C0.224418 31.6567 4.27145 39.5379 12.6508 49.8255C18.0812 56.4926 29.1421 66.4126 38.5874 62.2065C54.4431 55.1459 64.0219 32.3159 51.0318 18.6509C12.6508 -16 16.3659 17.0091 4.42858 18.7144ZM126.143 14.143C120.937 17.1992 114.864 20.0782 113.952 26.7779C113.018 33.6458 115.774 41.2617 118.333 47.4763C123.432 59.8588 133.819 75.1787 147.794 78.4287C161.603 81.6403 175.551 60.7182 172.905 48.7461C170.303 36.9755 156 -3.38584 126.143 14.143Z" stroke="black" stroke-width="4" stroke-linecap="round" stroke-linejoin="round"/>
</svg>
